<svg xmlns="http://www.w3.org/2000/svg" xmlns:xlink="http://www.w3.org/1999/xlink" version="1.1" id="Layer_1" x="0px" y="0px" viewBox="0 0 1080 1080" style="enable-background:new 0 0 1080 1080;" xml:space="preserve">
<style type="text/css">
	.st0{fill:none;stroke:#C1C1C1;stroke-miterlimit:10;stroke-dasharray:11.9518,11.9518;}
	.st1{fill:#F7F7F7;}
	.st2{fill:#F2F2F2;}
	.st3{fill: #f4f4f4;}
	.st4{fill: #f4f4f4;}
	.st5{fill: #01a0ff;}
	.st6{fill:#bebcb7;}
	.st7{fill: #b4b4b4;}
	.st8{fill:none;stroke:#F7F7F7;stroke-miterlimit:10;}
	.st9{fill:#FFE3CA;}
	.st10{fill:#603b00;}
	.st11{fill:#603b00;}
	.st12{fill:#ae6b00;}
	.st13{fill:#85DDFF;}
	.st14{fill:#41AAF7;}
	.st15{fill:#CCE9FF;}
    .st16{fill:#FFBE55;}
</style>

<g>
	
	<g>
		<path class="st5" d="M124.8,229.6H684c9.4,0,17,7.6,17,17V327c0,9.4-7.6,17-17,17H124.8c-9.4,0-17-7.6-17-17v-80.4    C107.8,237.2,115.4,229.6,124.8,229.6z"/>
		<circle class="st4" cx="160" cy="287" r="35"/>
		<g>
			<path class="st3" d="M534,272H225c-3.3,0-6-2.7-6-6l0,0c0-3.3,2.7-6,6-6h309c3.3,0,6,2.7,6,6l0,0C540,269.3,537.3,272,534,272z"/>
			<path class="st3" d="M534,295H225c-3.3,0-6-2.7-6-6l0,0c0-3.3,2.7-6,6-6h309c3.3,0,6,2.7,6,6l0,0C540,292.3,537.3,295,534,295z"/>
			<path class="st3" d="M534,318H225c-3.3,0-6-2.7-6-6l0,0c0-3.3,2.7-6,6-6h309c3.3,0,6,2.7,6,6l0,0C540,315.3,537.3,318,534,318z"/>
		</g>
		<polygon class="st16" points="645,191.9 672.8,253 737.3,259 686.3,306.5 702.1,367.5 645,332.1 587.9,367.5 603.7,306.5     552.7,259 617.2,253   "/>
	</g>
	<g>
		<path class="st7" d="M207.3,381.5h393.6c6.7,0,12.1,5.4,12.1,12.1V452c0,6.7-5.4,12.1-12.1,12.1H207.3c-6.7,0-12.1-5.4-12.1-12.1    v-58.4C195.1,386.9,200.6,381.5,207.3,381.5z"/>
		<circle class="st4" cx="232.9" cy="423" r="25.3"/>
		<g>
			<path class="st3" d="M503.1,412.1H279.8c-2.4,0-4.3-2-4.3-4.3l0,0c0-2.4,2-4.3,4.3-4.3h223.3c2.4,0,4.3,2,4.3,4.3l0,0     C507.4,410.2,505.5,412.1,503.1,412.1z"/>
			<path class="st3" d="M503.1,428.8H279.8c-2.4,0-4.3-2-4.3-4.3l0,0c0-2.4,2-4.3,4.3-4.3h223.3c2.4,0,4.3,2,4.3,4.3l0,0     C507.4,426.8,505.5,428.8,503.1,428.8z"/>
			<path class="st3" d="M503.1,445.4H279.8c-2.4,0-4.3-2-4.3-4.3l0,0c0-2.4,2-4.3,4.3-4.3h223.3c2.4,0,4.3,2,4.3,4.3l0,0     C507.4,443.4,505.5,445.4,503.1,445.4z"/>
		</g>
		<polygon class="st8" points="565,391.3 574.9,413.2 598,415.3 579.7,432.3 585.4,454.1 565,441.4 544.6,454.1 550.3,432.3     532,415.3 555.1,413.2   "/>
	</g>
	<g>
		<path class="st7" d="M207.3,489h393.6c6.7,0,12.1,5.4,12.1,12.1v58.4c0,6.7-5.4,12.1-12.1,12.1H207.3c-6.7,0-12.1-5.4-12.1-12.1    v-58.4C195.1,494.4,200.6,489,207.3,489z"/>
		<circle class="st4" cx="232.9" cy="530.5" r="25.3"/>
		<g>
			<path class="st3" d="M503.1,519.6H279.8c-2.4,0-4.3-2-4.3-4.3l0,0c0-2.4,2-4.3,4.3-4.3h223.3c2.4,0,4.3,2,4.3,4.3l0,0     C507.4,517.7,505.5,519.6,503.1,519.6z"/>
			<path class="st3" d="M503.1,536.3H279.8c-2.4,0-4.3-2-4.3-4.3l0,0c0-2.4,2-4.3,4.3-4.3h223.3c2.4,0,4.3,2,4.3,4.3l0,0     C507.4,534.3,505.5,536.3,503.1,536.3z"/>
			<path class="st3" d="M503.1,552.9H279.8c-2.4,0-4.3-2-4.3-4.3l0,0c0-2.4,2-4.3,4.3-4.3h223.3c2.4,0,4.3,2,4.3,4.3l0,0     C507.4,550.9,505.5,552.9,503.1,552.9z"/>
		</g>
		<polygon class="st8" points="565,498.8 574.9,520.7 598,522.8 579.7,539.8 585.4,561.6 565,548.9 544.6,561.6 550.3,539.8     532,522.8 555.1,520.7   "/>
	</g>
	<g>
		<path class="st7" d="M207.3,596.5h393.6c6.7,0,12.1,5.4,12.1,12.1V667c0,6.7-5.4,12.1-12.1,12.1H207.3c-6.7,0-12.1-5.4-12.1-12.1    v-58.4C195.1,601.9,200.6,596.5,207.3,596.5z"/>
		<circle class="st4" cx="232.9" cy="638" r="25.3"/>
		<g>
			<path class="st3" d="M503.1,627.1H279.8c-2.4,0-4.3-2-4.3-4.3l0,0c0-2.4,2-4.3,4.3-4.3h223.3c2.4,0,4.3,2,4.3,4.3l0,0     C507.4,625.2,505.5,627.1,503.1,627.1z"/>
			<path class="st3" d="M503.1,643.8H279.8c-2.4,0-4.3-2-4.3-4.3l0,0c0-2.4,2-4.3,4.3-4.3h223.3c2.4,0,4.3,2,4.3,4.3l0,0     C507.4,641.8,505.5,643.8,503.1,643.8z"/>
			<path class="st3" d="M503.1,660.4H279.8c-2.4,0-4.3-2-4.3-4.3l0,0c0-2.4,2-4.3,4.3-4.3h223.3c2.4,0,4.3,2,4.3,4.3l0,0     C507.4,658.4,505.5,660.4,503.1,660.4z"/>
		</g>
		<polygon class="st8" points="565,606.3 574.9,628.2 598,630.3 579.7,647.3 585.4,669.1 565,656.4 544.6,669.1 550.3,647.3     532,630.3 555.1,628.2   "/>
	</g>
	<g>
		<path class="st7" d="M207.3,704h393.6c6.7,0,12.1,5.4,12.1,12.1v58.4c0,6.7-5.4,12.1-12.1,12.1H207.3c-6.7,0-12.1-5.4-12.1-12.1    v-58.4C195.1,709.4,200.6,704,207.3,704z"/>
		<circle class="st4" cx="232.9" cy="745.5" r="25.3"/>
		<g>
			<path class="st3" d="M503.1,734.6H279.8c-2.4,0-4.3-2-4.3-4.3l0,0c0-2.4,2-4.3,4.3-4.3h223.3c2.4,0,4.3,2,4.3,4.3l0,0     C507.4,732.7,505.5,734.6,503.1,734.6z"/>
			<path class="st3" d="M503.1,751.3H279.8c-2.4,0-4.3-2-4.3-4.3l0,0c0-2.4,2-4.3,4.3-4.3h223.3c2.4,0,4.3,2,4.3,4.3l0,0     C507.4,749.3,505.5,751.3,503.1,751.3z"/>
			<path class="st3" d="M503.1,767.9H279.8c-2.4,0-4.3-2-4.3-4.3l0,0c0-2.4,2-4.3,4.3-4.3h223.3c2.4,0,4.3,2,4.3,4.3l0,0     C507.4,765.9,505.5,767.9,503.1,767.9z"/>
		</g>
		<polygon class="st8" points="565,713.8 574.9,735.7 598,737.8 579.7,754.8 585.4,776.6 565,763.9 544.6,776.6 550.3,754.8     532,737.8 555.1,735.7   "/>
	</g>
	<g>
		<path class="st7" d="M207.3,811.5h393.6c6.7,0,12.1,5.4,12.1,12.1V882c0,6.7-5.4,12.1-12.1,12.1H207.3c-6.7,0-12.1-5.4-12.1-12.1    v-58.4C195.1,816.9,200.6,811.5,207.3,811.5z"/>
		<circle class="st4" cx="232.9" cy="853" r="25.3"/>
		<g>
			<path class="st3" d="M503.1,842.1H279.8c-2.4,0-4.3-2-4.3-4.3l0,0c0-2.4,2-4.3,4.3-4.3h223.3c2.4,0,4.3,2,4.3,4.3l0,0     C507.4,840.2,505.5,842.1,503.1,842.1z"/>
			<path class="st3" d="M503.1,858.8H279.8c-2.4,0-4.3-2-4.3-4.3l0,0c0-2.4,2-4.3,4.3-4.3h223.3c2.4,0,4.3,2,4.3,4.3l0,0     C507.4,856.8,505.5,858.8,503.1,858.8z"/>
			<path class="st3" d="M503.1,875.4H279.8c-2.4,0-4.3-2-4.3-4.3l0,0c0-2.4,2-4.3,4.3-4.3h223.3c2.4,0,4.3,2,4.3,4.3l0,0     C507.4,873.4,505.5,875.4,503.1,875.4z"/>
		</g>
		<polygon class="st8" points="565,821.3 574.9,843.2 598,845.3 579.7,862.3 585.4,884.1 565,871.4 544.6,884.1 550.3,862.3     532,845.3 555.1,843.2   "/>
	</g>
</g>
<g>
	<path class="st9" d="M661.7,315.6v-11.2c0,0,4.1-11.2,8.1-19.3c-3,1-8.1,8.1-8.1,8.1s-2-17.3,0-21.3   c-13.2,11.2-13.2,15.2-13.2,15.2l5.1,18.3l-1,14.2L661.7,315.6z"/>
	<path class="st9" d="M852.5,576.4l6.1,11.2c0,0,12.2,8.1,12.2,12.2c0,4.1,0,9.1,0,9.1l-9.1,11.2c0,0-8.1-22.3-9.1-21.3   c-1,5.1-1,11.2-3,12.2c-1-6.1,2-21.3-2-26.4C843.3,579.4,852.5,576.4,852.5,576.4z"/>
	
		<rect x="817.3" y="913.1" transform="matrix(-0.9969 7.825331e-02 -7.825331e-02 -0.9969 1723.3162 1798.1506)" class="st9" width="18.3" height="39.6"/>
	<path class="st10" d="M837.1,951.9c7.7,7.5,13.3,13.2,13.6,17.3c-6.7,5.6-28.6,11.4-39.2,6.1c-2.1-14.1,7.4-22,7.4-22L837.1,951.9z   "/>
	
		<rect x="708.6" y="912.9" transform="matrix(-1 -4.491042e-11 4.491042e-11 -1 1435.549 1865.3744)" class="st9" width="18.3" height="39.6"/>
	<path class="st6" d="M739.3,533.2C727.1,570.8,661.5,819,701,929.6c16.7,11.7,35,0.5,35,0.5s60.1-257.9,48.9-323.8   s-12.7-73.1-12.7-73.1H739.3z"/>
	
		<rect x="760.1" y="383" transform="matrix(-1 -4.487267e-11 4.487267e-11 -1 1534.9457 797.5547)" class="st9" width="14.7" height="31.5"/>
	<path class="st9" d="M742.5,375.3c0,14.9,5.7,27.1,17.8,27.1s25.8-12.1,25.8-27.1s-9.8-27.1-21.8-27.1S742.5,360.4,742.5,375.3z"/>
	<path class="st11" d="M737,354c-1.6,10.8,1.4,14,5.1,14.3c5.2,0.3,9.7,3.7,11.3,8.7c3.2,10.1,8.3,19.9,16.9,25   c11.3,5.7,44.4-24.2,28.3-50.9C782.5,324.5,738.6,346.7,737,354z"/>
	<path class="st12" d="M774.8,414.5c18.3,2,44.7,15.2,44.7,15.2s30.4,115.7,36.5,151.2c-9.1,6.1-12.2,9.1-12.2,9.1l-34.5-113.7   l-13.2,56.8h-56.8l-13.2-73.1c0,0-85.2-41.6-78.1-144.1c16.2-7.1,16.2-7.1,16.2-7.1s-4.1,108.6,75.1,106.6   C739.3,415.5,764.7,410.4,774.8,414.5z"/>
	<path class="st6" d="M796,533.2c35.5,61.9,61.2,314.2,44.9,400.5c-16.7,13.7-30.4,0-30.4,0s-41.9-227.9-40.9-323.3   c-4.1-56.8,0-77.1,0-77.1H796z"/>
	<path class="st10" d="M726.9,952.5c7.1,8.1,12.2,14.2,12.2,18.3c-7.1,5.1-29.4,9.1-39.6,3c-1-14.2,9.1-21.3,9.1-21.3H726.9z"/>
	<g>
		<path class="st11" d="M774.3,346.6c3.6-10.2,14.7-16.7,25.5-16.6s21.1,6.1,27.9,14.4c6.9,8.4,10.7,18.9,12.6,29.5    c1.5,8.4,1.9,17.6-2.3,25.1c-3.7,6.7-10.4,11.2-14.3,17.7c-4.7,8-4.6,18-2.6,27s6,17.5,8.5,26.4c4.2,15,4.2,31.9-3.9,45.1    c-8.1,13.2-25.9,21.1-40.1,14.7c-10.6-4.8-17.1-16.3-18.1-27.8c-1.1-11.6,2.6-23.1,7.8-33.4c5.2-10.4,12-19.8,17.9-29.9    c5-8.7,9.5-18.2,9.1-28.3c-0.6-12.9-8.9-23.8-15.8-34.7c-6.9-10.9-12.8-24.3-8-36.3"/>
	</g>
</g>

</svg>