<svg xmlns="http://www.w3.org/2000/svg" width="455" height="309" viewBox="0 0 455 309" fill="none">
<g clip-path="url(#clip0_306_394)">
<path d="M276.537 173.236C277.313 173.236 278.057 173.544 278.606 174.092C279.155 174.639 279.463 175.382 279.463 176.157V204.41H335.596C336.372 204.41 337.116 204.718 337.665 205.265C338.214 205.813 338.522 206.556 338.522 207.331C338.522 208.105 338.214 208.848 337.665 209.396C337.116 209.943 336.372 210.251 335.596 210.251H279.463V307.958H273.61V176.157C273.61 175.382 273.919 174.639 274.467 174.092C275.016 173.544 275.761 173.236 276.537 173.236Z" fill="#CFCFCF"/>
<path d="M120.325 307.294L109.773 307.585C108.17 307.667 106.585 307.223 105.258 306.322C104.112 305.471 103.587 304.321 103.817 303.166L105.894 292.751C106.285 290.787 108.697 289.301 111.629 289.22L117.457 289.06C120.388 288.979 122.879 290.329 123.379 292.269L126.028 302.554C126.322 303.694 125.861 304.872 124.764 305.784C123.489 306.757 121.93 307.288 120.325 307.294Z" fill="#808080"/>
<path d="M184.509 306.996L173.957 307.287C172.354 307.369 170.768 306.926 169.442 306.024C168.296 305.173 167.77 304.023 168 302.868L170.077 292.454C170.468 290.489 172.881 289.004 175.813 288.923L181.64 288.762C184.572 288.681 187.063 290.032 187.562 291.972L190.211 302.256C190.505 303.397 190.044 304.574 188.947 305.486C187.672 306.46 186.113 306.99 184.509 306.996Z" fill="#808080"/>
<path d="M83.6843 218.58C83.2022 218.373 82.8055 218.008 82.5598 217.545C82.3141 217.082 82.2341 216.549 82.3331 216.035C82.4321 215.52 82.7041 215.055 83.1041 214.715C83.5041 214.376 84.0082 214.183 84.533 214.169L204.497 210.863C204.799 210.855 205.1 210.906 205.383 211.014C205.666 211.121 205.924 211.284 206.144 211.491C206.364 211.699 206.54 211.947 206.664 212.223C206.787 212.499 206.855 212.796 206.864 213.098V213.098C206.88 213.707 206.653 214.298 206.233 214.741C205.813 215.184 205.235 215.442 204.624 215.46L204.624 215.46L84.6602 218.766C84.3252 218.776 83.9921 218.713 83.6843 218.58Z" fill="#808080"/>
<path d="M127.957 178.945L93.666 179.89L96.863 295.437L131.154 294.492L127.957 178.945Z" fill="#CFCFCF"/>
<path d="M128.827 176.869L122.235 194.79L122.241 276.438L130.273 278.737L128.827 176.869Z" fill="#CCCCCC"/>
<path d="M110.633 148.748C104.217 148.93 99.3227 160.011 99.4404 164.335L99.657 172.163L122.887 171.522L122.67 163.694C122.548 159.371 117.048 148.577 110.633 148.748Z" fill="#808080"/>
<path d="M94.1109 227.741C92.9123 227.773 91.75 227.329 90.8791 226.506C90.0081 225.684 89.4997 224.55 89.4652 223.354L89.1127 210.614C89.0796 209.418 89.5241 208.257 90.3485 207.388C91.173 206.518 92.3097 206.011 93.5087 205.978C94.7077 205.945 95.8707 206.389 96.742 207.211C97.6132 208.034 98.1213 209.169 98.1544 210.365L98.5069 223.105C98.5386 224.301 98.0936 225.461 97.2694 226.33C96.4453 227.199 95.3094 227.707 94.1109 227.741Z" fill="#808080"/>
<path d="M102.813 180.164L102.651 171.745L104.863 171.69L105.025 180.082L107.03 302.399L104.818 302.46" fill="#808080"/>
<path d="M131.889 199.852L92.1233 200.948C88.3252 196.326 87.9802 176.632 95.9068 172.884L99.0153 167.616L122.981 166.448L125.782 171.995C129.725 175.343 131.758 194.914 131.889 199.852Z" fill="#CFCFCF"/>
<path d="M116.922 190.407L106.866 190.684C104.925 190.738 103.276 188.225 103.189 185.084C103.102 181.943 104.61 179.343 106.551 179.29L116.607 179.013C118.547 178.959 120.197 181.472 120.284 184.613C120.371 187.754 118.863 190.354 116.922 190.407Z" fill="#FFD700"/>
<path d="M97.4484 247.223L76.7196 261.836L73.0984 294.785L97.2797 286.722L97.4484 247.223Z" fill="#CFCFCF"/>
<path d="M194.152 177.53L159.861 178.475L163.058 294.022L197.349 293.077L194.152 177.53Z" fill="#CFCFCF"/>
<path d="M160.682 177.255L167.738 195L169.855 276.62L161.885 279.126L160.682 177.255Z" fill="#CCCCCC"/>
<path d="M211.301 145.45C213.783 145.45 215.795 142.757 215.795 139.435C215.795 136.113 213.783 133.42 211.301 133.42C208.818 133.42 206.806 136.113 206.806 139.435C206.806 142.757 208.818 145.45 211.301 145.45Z" fill="#CFCFCF"/>
<path d="M176.158 147.352C169.743 147.533 164.848 158.614 164.966 162.938L165.182 170.766L188.412 170.126L188.195 162.298C188.074 157.974 182.574 147.18 176.158 147.352Z" fill="#808080"/>
<path d="M182.8 182.8L182.638 174.38L184.851 174.325L185.013 182.718L187.018 305.035L184.805 305.096" fill="#808080"/>
<path d="M197.415 198.456L157.649 199.552C156.955 195.369 157.852 175.851 161.432 171.487L164.541 166.219L188.506 165.052L191.307 170.598C198.383 171.174 200.858 190.354 197.415 198.456Z" fill="#CFCFCF"/>
<path d="M182.496 190.768L172.44 191.046C170.499 191.099 168.839 188.192 168.738 184.566C168.638 180.941 170.135 177.947 172.076 177.893L182.132 177.616C184.073 177.562 185.733 180.469 185.834 184.095C185.934 187.721 184.436 190.715 182.496 190.768Z" fill="#FFD700"/>
<path d="M195.846 238.776L215.885 254.318L217.996 287.398L194.209 278.242L195.846 238.776Z" fill="#CFCFCF"/>
<path d="M190.25 85.5571C168.748 85.5571 144.036 61.7432 122.173 73.0579C55.9757 107.315 65.0881 49.9907 46.0702 28.6711L46.6945 27.4213C61.092 82.2315 74.1188 169.569 122.46 71.6041C134.57 47.0639 174.313 84.9962 197.707 83.8772L197.747 85.3795C195.277 85.4984 192.778 85.5576 190.25 85.5571Z" fill="#000000"/>
<path d="M241.859 88.927C224.718 101.884 190.612 97.7904 180.028 119.984C147.983 187.181 120.568 135.993 92.5101 130.458L92.2517 129.085C120.34 131.41 150.467 127.803 179.378 118.652C205.505 110.384 228.815 98.0831 246.787 83.0946L247.728 84.2677C245.83 85.8512 243.874 87.4043 241.859 88.927Z" fill="#000000"/>
<path d="M55.4052 85.9768C57.8875 85.9768 59.8998 83.2838 59.8998 79.9618C59.8998 76.6398 57.8875 73.9468 55.4052 73.9468C52.9229 73.9468 50.9106 76.6398 50.9106 79.9618C50.9106 83.2838 52.9229 85.9768 55.4052 85.9768Z" fill="#CFCFCF"/>
<path d="M194.807 37.1237C197.289 37.1237 199.301 34.4307 199.301 31.1087C199.301 27.7866 197.289 25.0936 194.807 25.0936C192.324 25.0936 190.312 27.7866 190.312 31.1087C190.312 34.4307 192.324 37.1237 194.807 37.1237Z" fill="#808080"/>
<path d="M96.5544 110.254C94.4996 111.62 92.3965 108.368 94.4908 107.062C96.5456 105.696 98.6487 108.948 96.5544 110.254Z" fill="#CFCFCF"/>
<path d="M172.64 3.52018C170.585 4.88658 168.482 1.63443 170.576 0.3287C172.631 -1.03762 174.734 2.21453 172.64 3.52018Z" fill="#CFCFCF"/>
<path d="M217.482 66.802L216.174 66.5158L216.461 65.2105L215.589 65.0199L215.302 66.3251L213.995 66.0394L213.804 66.9092L215.111 67.1955L214.825 68.5002L215.697 68.6908L215.983 67.3856L217.291 67.6718L217.482 66.802Z" fill="#CFCFCF"/>
<path d="M97.6527 23.0669C100.798 23.0669 103.347 20.5225 103.347 17.3838C103.347 14.2451 100.798 11.7007 97.6527 11.7007C94.5078 11.7007 91.9584 14.2451 91.9584 17.3838C91.9584 20.5225 94.5078 23.0669 97.6527 23.0669Z" fill="#FFD700"/>
<path d="M139.303 10.1904C132.888 10.3722 127.993 21.4527 128.111 25.7766L128.328 33.6046L151.557 32.9644L151.34 25.1364C151.219 20.8126 145.719 10.0186 139.303 10.1904Z" fill="#808080"/>
<path d="M153.135 306.612L142.583 306.902C140.981 306.985 139.395 306.541 138.068 305.639C136.922 304.789 136.397 303.639 136.627 302.484L138.704 292.069C139.095 290.104 141.507 288.619 144.439 288.538L150.267 288.378C153.199 288.297 155.69 289.647 156.189 291.587L158.838 301.872C159.132 303.012 158.671 304.189 157.574 305.102C156.299 306.075 154.74 306.606 153.135 306.612Z" fill="#808080"/>
<path d="M157.841 60.0236L123.55 60.9686L130.012 294.534L164.303 293.589L157.841 60.0236Z" fill="#CFCFCF"/>
<path d="M144.12 173.083L143.957 164.664L146.17 164.609L146.332 173.001L148.337 295.318L146.125 295.379" fill="#808080"/>
<path d="M164.592 81.3999L118.129 82.6803C117.319 77.7932 118.367 54.988 122.55 49.8891L123.696 43.8026L155.778 42.9185L157.456 48.8504C162.063 52.7629 164.439 75.63 164.592 81.3999Z" fill="#CFCFCF"/>
<path d="M156.792 43.6366L123.685 44.549C122.463 44.5826 121.454 43.9423 121.431 43.1188C121.428 43.0001 121.446 42.8819 121.483 42.7691L126.625 26.9581C126.846 26.2811 127.722 25.7838 128.745 25.7556L150.701 25.1506C151.724 25.1224 152.626 25.5706 152.884 26.2345L158.892 41.7382C159.2 42.5311 158.49 43.3563 157.307 43.5812C157.137 43.6134 156.965 43.6319 156.792 43.6366Z" fill="#CFCFCF"/>
<path d="M126.951 172.009C126.652 171.881 126.37 171.718 126.11 171.523C125.738 171.262 125.43 170.92 125.21 170.522C124.991 170.125 124.866 169.682 124.844 169.228L123.641 125.75C123.592 123.951 125.357 122.437 127.577 122.375L157.215 121.558C159.435 121.497 161.282 122.912 161.332 124.712L162.535 168.19C162.538 168.644 162.437 169.093 162.24 169.502C162.043 169.911 161.755 170.27 161.398 170.551C160.606 171.194 159.619 171.552 158.598 171.565L128.961 172.381C128.272 172.404 127.586 172.277 126.951 172.009Z" fill="#808080"/>
<path d="M145.921 40.8385L135.864 41.1156C133.924 41.1691 132.283 38.981 132.207 36.2387C132.131 33.4964 133.649 31.2212 135.589 31.1677L145.645 30.8906C147.586 30.8371 149.227 33.0252 149.303 35.7675C149.378 38.5099 147.861 40.785 145.921 40.8385Z" fill="#01a0ff"/>
<path d="M383.624 298.71H371.919V213.813C381.71 213.112 389.069 210.12 389.069 206.534C389.069 202.428 379.421 199.1 367.52 199.1C355.619 199.1 345.971 202.428 345.971 206.534C345.971 210.154 353.474 213.169 363.406 213.831V298.71H351.7C350.571 298.71 349.489 299.157 348.691 299.954C347.892 300.751 347.444 301.831 347.444 302.958C347.444 304.085 347.892 305.165 348.691 305.962C349.489 306.758 350.571 307.206 351.7 307.206H383.624C384.753 307.206 385.836 306.758 386.634 305.962C387.432 305.165 387.881 304.085 387.881 302.958C387.881 301.831 387.432 300.751 386.634 299.954C385.836 299.157 384.753 298.71 383.624 298.71Z" fill="#CFCFCF"/>
<path d="M360.128 255.61L356.282 259.792L338.291 246.98L343.965 240.808L360.128 255.61Z" fill="#A0616A"/>
<path d="M350.296 266.647C350.333 267.582 350.557 268.501 350.953 269.349C351.349 270.197 351.909 270.959 352.602 271.59L352.772 271.747L357.814 266.262L365.168 258.263L359.739 253.289L358.759 254.358L358.657 254.468L353.772 256.774L352.736 257.265L352.559 257.348L352.169 261.524V261.528C351.532 262.215 351.039 263.021 350.717 263.9C350.395 264.778 350.252 265.712 350.296 266.647Z" fill="#2F2E41"/>
<path d="M380.048 297.327L374.607 298.977L365.641 278.815L373.672 276.381L380.048 297.327Z" fill="#A0616A"/>
<path d="M365.424 307.267L365.491 307.491L383.036 302.171L380.895 295.135L379.509 295.555L379.363 295.598L372.84 295.001L372.647 294.985L370.179 298.384C368.368 298.933 366.85 300.177 365.958 301.842C365.067 303.508 364.874 305.459 365.424 307.267H365.424Z" fill=" #4d2d1a"/>
<path d="M335.179 191.764C335.179 191.764 300.438 225.24 322.401 235.602H329.189C330.664 230.815 332.932 226.309 335.899 222.269C336.54 221.432 338.943 221.602 339.61 220.786C343.684 215.801 348.101 211.52 351.151 211.69L350.422 234.82L349.241 243.071C348.621 247.336 366.122 284.575 366.122 284.575L377.122 280.261C377.122 280.261 365.661 249.588 365.527 245.166L374.711 196.546L335.179 191.764Z" fill="#9F9DB6"/>
<path d="M332.282 193.415C332.459 193.667 332.69 193.876 332.959 194.028C333.402 194.277 333.881 194.455 334.38 194.554C342.202 196.326 367.754 199.999 374.387 198.247C375.202 198.035 375.734 197.736 375.907 197.343C376.462 196.102 376.391 190.857 376.064 184.524C376.005 183.337 374.694 182.053 374.616 180.811C374.561 179.88 375.738 179.004 375.675 178.057C375.242 171.653 374.683 165.127 374.309 161.002C374.073 158.35 373.911 156.692 373.911 156.692L377.946 131.301L377.757 130.99L377.545 130.884L364.534 124.457L363.826 122.65C363.62 122.129 363.263 121.682 362.801 121.366C362.338 121.051 361.792 120.88 361.231 120.878L352.661 120.842C352.217 120.84 351.778 120.943 351.382 121.144C350.985 121.345 350.643 121.638 350.382 121.997L348.06 125.207L332.707 135.029L332.766 135.21L339.97 157.089L340.005 158.794V158.798L340.273 172.51L339.529 174.368L340.368 177.417C340.368 177.417 339.982 180.98 337.915 183.628C336.041 186.032 333.656 188.539 332.577 190.574V190.578C331.979 191.702 331.778 192.676 332.282 193.415Z" fill="#01a0ff"/>
<path d="M320.733 233.613L322.589 235.955C322.589 235.955 339.668 247.879 340.254 248.994L342.953 251.543L349.484 244.576L346.087 240.327C343.37 236.928 339.858 234.244 335.861 232.513L330.656 227.905L320.733 233.613Z" fill="#9F9DB6"/>
<path d="M382.25 201.324L379.14 171.28L378.319 158.915L387.024 157.344C387.024 157.344 386.679 166.186 387.819 171.174C388.944 176.096 387.968 200.664 387.899 201.321C388.538 201.891 388.989 202.642 389.191 203.474C389.394 204.306 389.338 205.179 389.032 205.979C388.727 206.778 388.185 207.466 387.479 207.952C386.773 208.438 385.935 208.698 385.078 208.698C384.22 208.699 383.383 208.439 382.676 207.954C381.969 207.469 381.427 206.782 381.12 205.982C380.814 205.183 380.758 204.31 380.959 203.478C381.161 202.646 381.611 201.895 382.25 201.324V201.324Z" fill="#A0616A"/>
<path d="M371.884 155.824L374.309 161.002L375.155 162.806L377.434 174.718L378.572 175.924L379.552 179.817L380.013 179.723L388.319 178.006L390.74 177.507C391.286 176.6 391.501 175.532 391.349 174.485C391.196 173.438 390.687 172.475 389.905 171.759C389.74 171.61 389.602 171.465 389.606 171.327C389.744 163.041 389.236 147.912 384.65 141.684C383.194 139.708 382.32 137.74 381.048 136.365C381.044 136.361 381.044 136.357 381.04 136.357L377.946 131.301L377.757 130.99L377.545 130.884L371.884 155.824Z" fill="#01a0ff"/>
<path d="M357.617 118.714C363.914 118.714 369.019 113.619 369.019 107.334C369.019 101.049 363.914 95.9542 357.617 95.9542C351.319 95.9542 346.214 101.049 346.214 107.334C346.214 113.619 351.319 118.714 357.617 118.714Z" fill="#A0616A"/>
<path d="M371.156 104.886C371.49 102.973 371.751 100.494 370.794 98.2902C369.986 96.4355 367.963 94.6965 365.715 94.9311C365.822 94.5124 365.81 94.0724 365.681 93.66C365.552 93.2477 365.311 92.8791 364.985 92.5952C364.253 92.0216 363.4 91.6214 362.491 91.4247C360.378 90.8049 358.189 90.1624 355.929 90.1504C353.393 90.1367 351.146 91.0038 349.768 92.5327L349.734 92.5821L349.321 93.5664C349.266 93.6985 349.183 93.817 349.077 93.9139C348.972 94.0108 348.846 94.0838 348.71 94.1279C348.573 94.1729 348.428 94.1871 348.285 94.1697C348.143 94.1522 348.005 94.1035 347.883 94.0269C347.75 93.9448 347.597 93.899 347.44 93.8939C347.283 93.8888 347.128 93.9247 346.989 93.9979C346.851 94.0712 346.733 94.1793 346.649 94.3115C346.565 94.4438 346.517 94.5956 346.51 94.7521L346.488 95.1721L345.897 94.9367C345.748 94.8769 345.587 94.8577 345.428 94.881C345.27 94.9044 345.121 94.9695 344.996 95.0697C344.871 95.1699 344.776 95.3014 344.719 95.4508C344.662 95.6002 344.647 95.7619 344.674 95.9194L344.752 96.419C344.625 96.396 344.495 96.3988 344.368 96.4272C344.242 96.4555 344.123 96.509 344.018 96.5842C343.868 96.6945 343.756 96.8496 343.7 97.0271C343.644 97.2046 343.645 97.3954 343.705 97.5719C344.164 98.8791 344.948 100.048 345.984 100.97C346.449 101.39 346.97 101.743 347.531 102.02C347.648 102.079 347.77 102.135 347.896 102.187C352.44 104.132 357.302 105.231 362.242 105.431C361.775 106.32 361.473 107.286 361.351 108.283C361.284 108.849 361.373 109.422 361.608 109.941C361.844 110.46 362.218 110.904 362.689 111.226C362.893 111.342 363.107 111.44 363.329 111.519C363.541 111.597 363.747 111.692 363.944 111.802C364.232 111.977 364.469 112.224 364.632 112.519C364.794 112.814 364.875 113.146 364.867 113.483C364.859 113.819 364.762 114.148 364.586 114.435C364.41 114.722 364.161 114.957 363.865 115.118C363.865 115.118 364.713 116.152 364.849 116.134C365.39 116.012 365.878 115.723 366.246 115.309C368.715 112.916 370.367 109.411 371.156 104.886Z" fill="#2d170e"/>
<path d="M421.076 280.796L421.572 269.675C426.738 266.919 432.5 265.463 438.358 265.434C430.296 272.012 431.303 284.693 425.837 293.54C424.111 296.286 421.788 298.609 419.04 300.337C416.292 302.066 413.19 303.155 409.963 303.524L403.216 307.646C402.29 302.495 402.495 297.206 403.814 292.141C405.134 287.076 407.539 282.358 410.862 278.31C412.749 276.058 414.912 274.051 417.301 272.338C418.917 276.591 421.076 280.796 421.076 280.796Z" fill="#F2F2F2"/>
<path d="M455 308.175C455 308.284 454.979 308.391 454.938 308.491C454.896 308.591 454.836 308.683 454.759 308.759C454.682 308.836 454.591 308.897 454.49 308.938C454.39 308.979 454.282 309 454.174 309H0.826417C0.607238 309 0.397034 308.913 0.242051 308.758C0.0870675 308.604 0 308.394 0 308.175C0 307.957 0.0870675 307.747 0.242051 307.592C0.397034 307.437 0.607238 307.35 0.826417 307.35H454.174C454.282 307.35 454.39 307.371 454.49 307.413C454.591 307.454 454.682 307.515 454.759 307.591C454.836 307.668 454.896 307.759 454.938 307.859C454.979 307.959 455 308.067 455 308.175Z" fill="#CCCCCC"/>
<path d="M195.001 224.919C193.803 224.951 192.64 224.506 191.769 223.684C190.899 222.862 190.39 221.728 190.356 220.532L190.003 207.792C189.971 206.597 190.417 205.437 191.241 204.569C192.065 203.701 193.201 203.195 194.399 203.162C195.597 203.128 196.759 203.571 197.63 204.393C198.501 205.214 199.01 206.347 199.045 207.543L199.397 220.283C199.429 221.479 198.984 222.639 198.16 223.508C197.336 224.377 196.2 224.885 195.001 224.919Z" fill="#808080"/>
<path d="M394.45 271.479C387.58 271.479 380.05 271.22 371.86 270.702C329.5 268.017 274.631 258.684 217.361 244.421C160.09 230.158 107.26 212.67 68.6027 195.178C49.7715 186.657 35.3187 178.591 25.6461 171.204C15.4054 163.384 10.926 156.567 12.3318 150.944C15.0708 139.99 39.324 137.593 59.1876 137.512L59.1944 139.105C31.9164 139.217 15.8237 143.559 13.8807 151.33C11.4056 161.228 31.5914 176.681 69.2618 193.727C107.834 211.18 160.567 228.635 217.747 242.876C274.927 257.115 329.695 266.433 371.961 269.112C413.238 271.729 438.333 267.552 440.808 257.654C442.862 249.435 429.316 237.329 402.664 223.564L403.398 222.149C422.763 232.151 445.242 246.497 442.357 258.04C440.951 263.662 433.788 267.579 421.066 269.681C413.814 270.879 404.907 271.479 394.45 271.479Z" fill="#000000"/>
<path d="M29.8269 261.043C24.3753 261.043 20.8312 259.691 19.2625 257.004C16.1691 251.704 21.35 242.404 34.661 229.364L35.7791 230.501C23.4146 242.614 18.0386 251.742 20.6415 256.202C22.2886 259.023 27.1905 260.034 34.8202 259.125C42.3944 258.222 52.4319 255.532 64.6541 251.13C89.8161 242.067 121.384 226.78 153.544 208.084C185.702 189.389 214.599 169.524 234.911 152.15C238.812 148.812 242.353 145.601 245.435 142.607C249.48 138.772 253.212 134.621 256.595 130.193C261.151 124.019 262.689 119.264 261.042 116.443C258.291 111.73 246.736 112.173 228.503 117.692L228.04 116.168C247.602 110.247 259.17 110.07 262.421 115.641C264.442 119.103 262.914 124.316 257.881 131.138C254.446 135.636 250.656 139.853 246.548 143.748C243.443 146.766 239.877 150 235.95 153.359C215.566 170.794 186.586 190.718 154.347 209.46C122.107 228.203 90.4459 243.534 65.1961 252.629C52.8601 257.072 42.7038 259.79 35.0094 260.706C33.2901 260.92 31.5596 261.033 29.8269 261.043Z" fill="#000000"/>
<path d="M321.156 195.637C317.211 195.559 296.021 194.952 292.547 195.101C292.35 194.414 285.763 202.839 285.603 202.892C285.496 203.004 285.418 203.141 285.376 203.29C285.333 203.439 285.328 203.596 285.359 203.747C285.391 203.899 285.459 204.041 285.557 204.161C285.656 204.281 285.782 204.375 285.924 204.435C286.312 204.67 320.472 204.04 320.886 204.122C321.065 204.119 321.24 204.066 321.39 203.968C321.54 203.871 321.659 203.733 321.734 203.57L321.963 203.06C321.986 202.187 322.273 197.724 322.016 196.962C322.079 196.818 322.105 196.662 322.093 196.506C322.08 196.35 322.029 196.199 321.944 196.068C321.858 195.937 321.742 195.829 321.604 195.753C321.467 195.678 321.313 195.638 321.156 195.637Z" fill="#CFCFCF"/>
<path opacity="0.17" d="M321.962 203.059C321.762 203.54 321.506 204.144 320.886 204.122L286.285 204.51C286.121 204.508 285.961 204.464 285.819 204.382C285.677 204.301 285.559 204.184 285.475 204.044C285.392 203.903 285.346 203.744 285.342 203.581C285.338 203.417 285.376 203.256 285.452 203.111L321.962 203.059Z" fill="black"/>
<path d="M292.708 194.998C292.336 194.355 283.085 148.673 282.313 148.291L275.997 140.58L275.433 140.156C274.648 139.726 272.765 140.017 272.934 141.214C274.418 148.313 283.962 188.749 284.171 195.053L285.32 203.084C285.34 203.221 285.389 203.352 285.463 203.469C285.538 203.585 285.636 203.685 285.751 203.762C285.866 203.838 285.996 203.89 286.133 203.913C286.269 203.936 286.409 203.931 286.543 203.897C286.873 203.861 287.187 203.741 287.455 203.547C287.724 203.354 287.937 203.094 288.074 202.793C288.16 202.509 293.141 195.162 292.708 194.998Z" fill="#CFCFCF"/>
<path opacity="0.17" d="M275.996 140.58L288.076 202.794C287.672 203.815 285.781 204.53 285.341 203.191C285.333 203.189 272.949 141.252 272.936 141.215C272.804 139.724 275.272 139.677 275.996 140.58Z" fill="black"/>
<path d="M276.36 143.124L282.495 151.659L289.381 184.298L286.18 187.084L276.36 143.124Z" fill="#01a0ff"/>
<path d="M317.196 200.038L318.893 200.107C318.92 199.611 319.002 199.119 319.138 198.641C319.393 197.431 319.622 195.992 318.563 195.997C317.845 195.928 317.6 196.836 317.473 197.824C317.44 198.568 317.347 199.308 317.196 200.038Z" fill="#2F2E41"/>
<path d="M307.459 197.76L308.603 197.802L309.157 197.824C309.146 197.218 309.428 195.97 308.741 195.662C308.632 195.616 308.515 195.592 308.396 195.593C307.752 195.556 307.56 196.045 307.502 196.608C307.465 196.948 307.48 197.309 307.47 197.59C307.47 197.648 307.465 197.707 307.459 197.76Z" fill="#2F2E41"/>
<path d="M304.07 197.622L305.219 197.67L305.767 197.691C305.757 196.995 306.124 195.477 305.006 195.455C303.974 195.397 304.107 196.709 304.081 197.452C304.081 197.51 304.075 197.569 304.07 197.622Z" fill="#2F2E41"/>
<path d="M300.681 197.489L301.825 197.532L302.378 197.553C302.367 196.863 302.734 195.344 301.617 195.323C300.585 195.259 300.718 196.571 300.691 197.319C300.691 197.378 300.686 197.436 300.681 197.489Z" fill="#2F2E41"/>
<path d="M297.291 197.351L298.441 197.399L298.989 197.42C298.978 196.724 299.345 195.211 298.228 195.185C297.196 195.126 297.329 196.438 297.302 197.181C297.302 197.24 297.297 197.298 297.291 197.351Z" fill="#2F2E41"/>
<path d="M293.902 197.218L295.046 197.261L295.599 197.282C295.589 196.645 295.897 195.312 295.078 195.084H295.073C294.997 195.061 294.918 195.051 294.839 195.052C294.742 195.043 294.645 195.052 294.551 195.078H294.546C293.833 195.264 293.934 196.379 293.913 197.048C293.913 197.107 293.907 197.165 293.902 197.218Z" fill="#2F2E41"/>
<path d="M313.775 196.857L315.472 196.926C315.472 196.863 315.472 196.794 315.477 196.714C315.519 196.31 315.527 195.903 315.499 195.498C315.44 195.052 315.249 194.701 314.711 194.691C314.163 194.659 313.945 195.009 313.86 195.461C313.84 195.537 313.826 195.616 313.817 195.694V195.7C313.775 196.114 313.801 196.56 313.775 196.857Z" fill="#2F2E41"/>
<path d="M310.385 196.719L312.083 196.788C312.119 196.332 312.129 195.875 312.115 195.418C312.067 194.951 311.881 194.569 311.322 194.558C310.758 194.521 310.54 194.903 310.455 195.376C310.375 195.832 310.417 196.379 310.385 196.719Z" fill="#2F2E41"/>
<path d="M306.996 196.586L307.502 196.608L308.694 196.655C308.688 196.401 308.736 196.029 308.741 195.662C308.746 195.553 308.742 195.443 308.731 195.333C308.688 194.839 308.513 194.43 307.933 194.42C307.342 194.388 307.135 194.797 307.06 195.296C306.986 195.742 307.028 196.257 306.996 196.586Z" fill="#2F2E41"/>
<path d="M313.807 199.905L315.504 199.969C315.499 199.279 315.861 197.76 314.743 197.739C313.626 197.67 313.871 199.21 313.807 199.905Z" fill="#2F2E41"/>
<path d="M310.417 199.767L312.115 199.836C312.109 199.141 312.471 197.622 311.354 197.601C310.237 197.537 310.481 199.077 310.417 199.767Z" fill="#2F2E41"/>
<path d="M307.028 199.634L308.725 199.698C308.72 199.204 308.906 198.291 308.603 197.802C308.537 197.694 308.443 197.606 308.33 197.547C308.218 197.488 308.091 197.461 307.965 197.468C307.79 197.45 307.615 197.493 307.47 197.59C306.927 197.946 307.081 199.072 307.028 199.634Z" fill="#2F2E41"/>
<path d="M303.639 199.496L305.336 199.565C305.331 199.072 305.512 198.164 305.219 197.67C305.153 197.56 305.058 197.47 304.945 197.41C304.831 197.35 304.703 197.323 304.575 197.33C304.401 197.311 304.226 197.354 304.081 197.452C303.538 197.818 303.692 198.939 303.639 199.496Z" fill="#2F2E41"/>
<path d="M300.25 199.364L301.947 199.427C301.942 198.934 302.128 198.02 301.825 197.532C301.758 197.423 301.664 197.335 301.552 197.276C301.439 197.217 301.313 197.19 301.186 197.197C301.012 197.179 300.837 197.222 300.691 197.319C300.149 197.675 300.303 198.801 300.25 199.364Z" fill="#2F2E41"/>
<path d="M296.86 199.226L298.558 199.295C298.552 198.801 298.733 197.893 298.441 197.399C298.375 197.289 298.28 197.198 298.167 197.139C298.053 197.079 297.925 197.051 297.797 197.059C297.623 197.04 297.447 197.083 297.302 197.181C296.759 197.548 296.914 198.668 296.86 199.226Z" fill="#2F2E41"/>
<path d="M293.471 199.093L295.168 199.157C295.163 198.663 295.344 197.755 295.046 197.261C294.98 197.152 294.886 197.064 294.774 197.005C294.661 196.946 294.534 196.919 294.408 196.926C294.233 196.908 294.058 196.951 293.913 197.048C293.37 197.409 293.524 198.53 293.471 199.093Z" fill="#2F2E41"/>
<path d="M312.639 194.184L325.576 166.879L330.467 155.489L322.779 151.121C322.779 151.121 320.161 159.574 317.425 163.901C314.724 168.17 307.465 191.665 307.312 192.308C306.519 192.634 305.844 193.193 305.376 193.91C304.909 194.628 304.67 195.47 304.692 196.325C304.714 197.181 304.996 198.01 305.5 198.702C306.005 199.394 306.708 199.917 307.517 200.202C308.325 200.487 309.202 200.52 310.03 200.297C310.858 200.074 311.598 199.605 312.153 198.953C312.709 198.3 313.052 197.495 313.139 196.644C313.226 195.792 313.052 194.935 312.639 194.184H312.639Z" fill="#A0616A"/>
<path d="M312.561 168.904L322.344 174.794L324.563 171.448L326.041 170.687L332.156 160.206L337.563 154.708L344.708 131.917L335.412 133.309L335.4 133.313C333.744 134.19 332.263 135.757 330.232 137.138C323.834 141.49 318.317 155.592 315.688 163.454C315.645 163.583 315.468 163.673 315.262 163.761C314.288 164.177 313.487 164.916 312.994 165.853C312.502 166.79 312.349 167.867 312.561 168.904L312.561 168.904Z" fill="#01a0ff"/>
</g>
<defs>
<clipPath id="clip0_306_394">
<rect width="455" height="309" fill="white"/>
</clipPath>
</defs>
</svg>