<?xml version="1.0" encoding="UTF-8" standalone="no"?>
<!-- Created with Inkscape (http://www.inkscape.org/) -->

<svg
   width="1267.5927mm"
   height="179.73039mm"
   viewBox="0 0 1267.5927 179.73039"
   version="1.1"
   id="svg5"
   sodipodi:docname="logo-ng-w.svg"
   inkscape:version="1.2 (56b05e47e7, 2022-06-09, custom)"
   xmlns:inkscape="http://www.inkscape.org/namespaces/inkscape"
   xmlns:sodipodi="http://sodipodi.sourceforge.net/DTD/sodipodi-0.dtd"
   xmlns="http://www.w3.org/2000/svg"
   xmlns:svg="http://www.w3.org/2000/svg">
  <sodipodi:namedview
     id="namedview7"
     pagecolor="#ffffff"
     bordercolor="#666666"
     borderopacity="1.0"
     inkscape:pageshadow="2"
     inkscape:pageopacity="0"
     inkscape:pagecheckerboard="0"
     inkscape:document-units="mm"
     showgrid="false"
     inkscape:zoom="0.11313708"
     inkscape:cx="1794.2835"
     inkscape:cy="287.26214"
     inkscape:window-width="1920"
     inkscape:window-height="946"
     inkscape:window-x="0"
     inkscape:window-y="0"
     inkscape:window-maximized="1"
     inkscape:current-layer="layer1"
     fit-margin-top="0"
     fit-margin-left="0"
     fit-margin-right="0"
     fit-margin-bottom="0"
     inkscape:showpageshadow="2"
     inkscape:deskcolor="#d1d1d1" />
  <defs
     id="defs2">
    <rect
       x="-406.58642"
       y="-97.227187"
       width="5197.2351"
       height="2077.1263"
       id="rect5348" />
    <rect
       x="2934.6723"
       y="302.06399"
       width="2634.1519"
       height="60.328253"
       id="rect3208" />
    <rect
       x="222.50298"
       y="373.78534"
       width="204.82062"
       height="79.570602"
       id="rect3564" />
  </defs>
  <g
     inkscape:label="Livello 1"
     inkscape:groupmode="layer"
     id="layer1"
     transform="translate(-27.236056,58.789021)">
    <g
       aria-label="currence"
       id="text1112"
       style="font-size:368.3px;line-height:1.25;letter-spacing:-15.7454px;word-spacing:0px;stroke-width:0.264583">
      <path
         d="m 115.62805,-34.112922 q -25.044396,0 -41.617895,16.941799 -16.5735,16.94179976 -16.5735,48.615599 0,31.305499 15.8369,48.247298 16.205199,16.9418 42.354495,16.9418 15.4686,0 25.781,-4.0513 10.3124,-4.4196 18.415,-9.9441 4.0513,2.2098 6.6294,5.5245 2.5781,3.3147 2.5781,8.1026 0,10.312396 -15.4686,17.678396 -15.1003,6.9977 -37.9349,6.9977 -25.412696,0 -45.669195,-9.5758 -19.8882,-9.9441 -31.305499,-29.832296 -11.4173,-19.888199 -11.4173,-50.088798 0,-29.8322993 11.7856,-49.720499 11.785599,-20.256499 31.673799,-30.200599 20.256499,-10.312399 44.195995,-10.312399 22.8346,0 37.5666,7.734299 15.1003,7.7343 15.1003,17.6784 0,4.4196 -2.5781,7.7343 -2.5781,3.314699 -6.6294,5.156199 -8.1026,-5.524499 -18.0467,-9.575799 -9.5758,-4.0513 -24.6761,-4.0513 z"
         style="font-family:'Baloo Da 2';-inkscape-font-specification:'Baloo Da 2, Normal';fill:#ffffff"
         id="path905" />
      <path
         d="m 197.11407,20.395476 h 29.464 v 32.042099 q 0,23.571199 12.5222,33.883599 12.5222,10.3124 34.6202,10.3124 14.732,0 25.0444,-2.9464 10.3124,-3.3147 16.2052,-6.6294 V 20.395476 h 29.464 v 65.557398 q 0,7.7343 -2.2098,12.522199 -1.8415,4.419597 -9.5758,8.839197 -8.1026,4.7879 -23.2029,9.2075 -15.1003,4.4196 -36.0934,4.4196 -24.3078,0 -41.6179,-6.9977 -16.9418,-7.366 -25.781,-22.097996 -8.8392,-15.1003 -8.8392,-37.934899 z m 117.856,19.151599 v -92.811596 q 1.8415,-0.7366 5.5245,-1.4732 4.0513,-1.1049 8.1026,-1.1049 8.1026,0 11.7856,3.314699 4.0513,2.9464 4.0513,10.3124 v 81.762597 z m -117.856,0 v -92.811596 q 1.8415,-0.7366 5.5245,-1.4732 4.0513,-1.1049 8.4709,-1.1049 7.7343,0 11.4173,3.314699 4.0513,2.9464 4.0513,10.3124 v 81.762597 z"
         style="font-family:'Baloo Da 2';-inkscape-font-specification:'Baloo Da 2, Normal';fill:#ffffff"
         id="path907" />
      <path
         d="m 413.39738,35.864076 h -29.464 v -55.981599 q 0,-8.470899 2.9464,-13.258799 3.3147,-5.1562 10.6807,-9.9441 9.5758,-6.2611 26.1493,-10.680699 16.5735,-4.7879 36.82999,-4.7879 29.464,0 29.464,14.731999 0,3.683 -1.1049,6.9977 -1.1049,2.9464 -2.9464,5.1562 -3.683,-0.7366 -9.5758,-1.4732 -5.8928,-0.7366 -11.7856,-0.7366 -16.9418,0 -29.83229,3.683 -12.8905,3.3147 -21.3614,8.102599 z m 0,-12.5222 v 92.074994 q -1.8415,0.7366 -5.5245,1.4732 -3.683,1.1049 -8.1026,1.1049 -7.7343,0 -11.7856,-2.9464 -4.0513,-3.3147 -4.0513,-10.3124 V 18.922276 Z"
         style="font-family:'Baloo Da 2';-inkscape-font-specification:'Baloo Da 2, Normal';fill:#ffffff"
         id="path909" />
      <path
         d="m 536.50138,35.864076 h -29.464 v -55.981599 q 0,-8.470899 2.9464,-13.258799 3.3147,-5.1562 10.6807,-9.9441 9.5758,-6.2611 26.1493,-10.680699 16.5735,-4.7879 36.83,-4.7879 29.464,0 29.464,14.731999 0,3.683 -1.1049,6.9977 -1.1049,2.9464 -2.9464,5.1562 -3.683,-0.7366 -9.5758,-1.4732 -5.8928,-0.7366 -11.7856,-0.7366 -16.9418,0 -29.8323,3.683 -12.8905,3.3147 -21.3614,8.102599 z m 0,-12.5222 v 92.074994 q -1.8415,0.7366 -5.5245,1.4732 -3.683,1.1049 -8.1026,1.1049 -7.7343,0 -11.7856,-2.9464 -4.0513,-3.3147 -4.0513,-10.3124 V 18.922276 Z"
         style="font-family:'Baloo Da 2';-inkscape-font-specification:'Baloo Da 2, Normal';fill:#ffffff"
         id="path911" />
      <path
         d="m 637.50697,26.656576 111.22659,-15.1003 q -1.4732,-20.256499 -13.9954,-33.146999 -12.5222,-13.258799 -34.6202,-13.258799 -22.8346,0 -37.9349,16.573499 -14.73199,16.2051998 -14.73199,46.774099 v 8.1026 q 2.5781,29.463999 19.15159,44.932598 16.9418,15.1003 46.0375,15.1003 15.4686,0 27.9908,-5.1562 12.5222,-5.1562 19.8882,-11.049 4.0513,2.5781 6.2611,6.2611 2.5781,3.3147 2.5781,7.7343 0,6.997696 -8.1026,13.258796 -7.7343,5.8928 -20.9931,9.5758 -12.8905,3.683 -29.0957,3.683 -28.3591,0 -49.3522,-10.3124 -20.62479,-10.3124 -32.04209,-30.568896 -11.049,-20.624799 -11.049,-50.088798 0,-20.9930995 5.8928,-37.198299 6.2611,-16.573499 16.9418,-27.990799 11.04899,-11.4173 26.14929,-17.3101 15.1003,-6.261099 32.7787,-6.261099 22.4663,0 39.4081,9.575799 17.3101,9.5758 26.8859,26.885899 9.9441,16.9417999 9.9441,39.039799 0,8.1026 -3.683,11.7856 -3.683,3.3147 -10.3124,4.0513 L 638.98017,49.859475 Z"
         style="font-family:'Baloo Da 2';-inkscape-font-specification:'Baloo Da 2, Normal';fill:#ffffff"
         id="path913" />
      <path
         d="m 951.02144,41.388575 h -29.464 V 5.2951766 q 0,-20.6247996 -11.7856,-30.2005986 -11.4173,-9.5758 -30.9372,-9.5758 -14.732,0 -26.1493,3.683 -11.4173,3.683 -19.5199,8.470899 v 63.715898 h -29.464 v -62.242698 q 0,-7.734299 2.9464,-12.522199 3.3147,-5.1562 11.049,-9.9441 9.5758,-5.5245 25.4127,-10.312399 15.8369,-5.1562 35.7251,-5.1562 33.5153,0 52.6669,15.468599 19.5199,15.1003 19.5199,47.1423986 z m -117.856,-20.256499 v 94.284794 q -1.8415,0.7366 -5.5245,1.4732 -3.683,1.1049 -8.1026,1.1049 -7.7343,0 -11.7856,-2.9464 -4.0513,-3.3147 -4.0513,-10.3124 V 21.132076 Z m 117.856,0 v 94.284794 q -1.8415,0.7366 -5.8928,1.4732 -3.683,1.1049 -7.7343,1.1049 -8.1026,0 -12.1539,-2.9464 -3.683,-3.3147 -3.683,-10.3124 V 21.132076 Z"
         style="font-family:'Baloo Da 2';-inkscape-font-specification:'Baloo Da 2, Normal';fill:#ffffff"
         id="path915" />
      <path
         d="m 1069.337,-34.112922 q -25.0444,0 -41.6179,16.941799 -16.5735,16.94179976 -16.5735,48.615599 0,31.305499 15.8369,48.247298 16.2052,16.9418 42.3545,16.9418 15.4686,0 25.781,-4.0513 10.3124,-4.4196 18.415,-9.9441 4.0513,2.2098 6.6294,5.5245 2.5781,3.3147 2.5781,8.1026 0,10.312396 -15.4686,17.678396 -15.1003,6.9977 -37.9349,6.9977 -25.4127,0 -45.6692,-9.5758 -19.8882,-9.9441 -31.30552,-29.832296 -11.4173,-19.888199 -11.4173,-50.088798 0,-29.8322993 11.7856,-49.720499 11.78562,-20.256499 31.67382,-30.200599 20.2565,-10.312399 44.196,-10.312399 22.8346,0 37.5666,7.734299 15.1003,7.7343 15.1003,17.6784 0,4.4196 -2.5781,7.7343 -2.5781,3.314699 -6.6294,5.156199 -8.1026,-5.524499 -18.0467,-9.575799 -9.5758,-4.0513 -24.6761,-4.0513 z"
         style="font-family:'Baloo Da 2';-inkscape-font-specification:'Baloo Da 2, Normal';fill:#ffffff"
         id="path917" />
      <path
         d="m 1155.6113,26.656576 111.2266,-15.1003 q -1.4732,-20.256499 -13.9954,-33.146999 -12.5222,-13.258799 -34.6202,-13.258799 -22.8346,0 -37.9349,16.573499 -14.732,16.2051998 -14.732,46.774099 v 8.1026 q 2.5781,29.463999 19.1516,44.932598 16.9418,15.1003 46.0375,15.1003 15.4686,0 27.9908,-5.1562 12.5222,-5.1562 19.8882,-11.049 4.0513,2.5781 6.2611,6.2611 2.5781,3.3147 2.5781,7.7343 0,6.997696 -8.1026,13.258796 -7.7343,5.8928 -20.9931,9.5758 -12.8905,3.683 -29.0957,3.683 -28.3591,0 -49.3522,-10.3124 -20.6248,-10.3124 -32.0421,-30.568896 -11.049,-20.624799 -11.049,-50.088798 0,-20.9930995 5.8928,-37.198299 6.2611,-16.573499 16.9418,-27.990799 11.049,-11.4173 26.1493,-17.3101 15.1003,-6.261099 32.7787,-6.261099 22.4663,0 39.4081,9.575799 17.3101,9.5758 26.8859,26.885899 9.9441,16.9417999 9.9441,39.039799 0,8.1026 -3.683,11.7856 -3.683,3.3147 -10.3124,4.0513 l -123.7488,17.310099 z"
         style="font-family:'Baloo Da 2';-inkscape-font-specification:'Baloo Da 2, Normal';fill:#ffffff"
         id="path919"
         inkscape:label="path919" />
    </g>
  </g>
</svg>
