<?xml version="1.0" encoding="UTF-8" standalone="no"?>
<!-- Created with Inkscape (http://www.inkscape.org/) -->

<svg
   width="1637.8223mm"
   height="324.88004mm"
   viewBox="0 0 1637.8223 324.88003"
   version="1.1"
   id="svg5"
   sodipodi:docname="currence-g-nt.svg"
   inkscape:version="1.1.2 (b8e25be833, 2022-02-05)"
   xmlns:inkscape="http://www.inkscape.org/namespaces/inkscape"
   xmlns:sodipodi="http://sodipodi.sourceforge.net/DTD/sodipodi-0.dtd"
   xmlns:xlink="http://www.w3.org/1999/xlink"
   xmlns="http://www.w3.org/2000/svg"
   xmlns:svg="http://www.w3.org/2000/svg">
  <sodipodi:namedview
     id="namedview7"
     pagecolor="#ffffff"
     bordercolor="#666666"
     borderopacity="1.0"
     inkscape:pageshadow="2"
     inkscape:pageopacity="0.0"
     inkscape:pagecheckerboard="0"
     inkscape:document-units="mm"
     showgrid="false"
     inkscape:zoom="0.11313708"
     inkscape:cx="3014.0428"
     inkscape:cy="2169.934"
     inkscape:window-width="1920"
     inkscape:window-height="1001"
     inkscape:window-x="-9"
     inkscape:window-y="-9"
     inkscape:window-maximized="1"
     inkscape:current-layer="svg5"
     fit-margin-top="0"
     fit-margin-left="0"
     fit-margin-right="0"
     fit-margin-bottom="0" />
  <defs
     id="defs2">
    <rect
       x="222.50298"
       y="373.78534"
       width="204.82062"
       height="79.570602"
       id="rect3564" />
    <radialGradient
       inkscape:collect="always"
       xlink:href="#linearGradient1303"
       id="radialGradient1305"
       cx="-35461.734"
       cy="35378.465"
       fx="-35461.734"
       fy="35378.465"
       r="14095.25"
       gradientUnits="userSpaceOnUse"
       gradientTransform="matrix(1.3290323,0,0,1.3290323,11668.055,-11640.656)" />
    <linearGradient
       inkscape:collect="always"
       id="linearGradient1303">
      <stop
         style="stop-color:#ffd700;stop-opacity:1;"
         offset="0"
         id="stop1299" />
      <stop
         style="stop-color:#ffd700;stop-opacity:0;"
         offset="1"
         id="stop1301" />
    </linearGradient>
  </defs>
  <g
     inkscape:label="Livello 1"
     inkscape:groupmode="layer"
     id="layer1"
     transform="translate(342.9934,135.58343)">
    <g
       aria-label="currence"
       id="text1112"
       style="font-size:368.3px;line-height:1.25;letter-spacing:-15.7454px;word-spacing:0px;stroke-width:0.264583">
      <path
         d="m 115.62805,-34.112922 q -25.044396,0 -41.617895,16.941799 -16.5735,16.94179976 -16.5735,48.615599 0,31.305499 15.8369,48.247298 16.205199,16.9418 42.354495,16.9418 15.4686,0 25.781,-4.0513 10.3124,-4.4196 18.415,-9.9441 4.0513,2.2098 6.6294,5.5245 2.5781,3.3147 2.5781,8.1026 0,10.312396 -15.4686,17.678396 -15.1003,6.9977 -37.9349,6.9977 -25.412696,0 -45.669195,-9.5758 -19.8882,-9.9441 -31.305499,-29.832296 -11.4173,-19.888199 -11.4173,-50.088798 0,-29.8322993 11.7856,-49.720499 11.785599,-20.256499 31.673799,-30.200599 20.256499,-10.312399 44.195995,-10.312399 22.8346,0 37.5666,7.734299 15.1003,7.7343 15.1003,17.6784 0,4.4196 -2.5781,7.7343 -2.5781,3.314699 -6.6294,5.156199 -8.1026,-5.524499 -18.0467,-9.575799 -9.5758,-4.0513 -24.6761,-4.0513 z"
         style="font-family:'Baloo Da 2';-inkscape-font-specification:'Baloo Da 2, Normal'"
         id="path915" />
      <path
         d="m 197.11407,20.395476 h 29.464 v 32.042099 q 0,23.571199 12.5222,33.883599 12.5222,10.3124 34.6202,10.3124 14.732,0 25.0444,-2.9464 10.3124,-3.3147 16.2052,-6.6294 V 20.395476 h 29.464 v 65.557398 q 0,7.7343 -2.2098,12.522199 -1.8415,4.419597 -9.5758,8.839197 -8.1026,4.7879 -23.2029,9.2075 -15.1003,4.4196 -36.0934,4.4196 -24.3078,0 -41.6179,-6.9977 -16.9418,-7.366 -25.781,-22.097996 -8.8392,-15.1003 -8.8392,-37.934899 z m 117.856,19.151599 v -92.811596 q 1.8415,-0.7366 5.5245,-1.4732 4.0513,-1.1049 8.1026,-1.1049 8.1026,0 11.7856,3.314699 4.0513,2.9464 4.0513,10.3124 v 81.762597 z m -117.856,0 v -92.811596 q 1.8415,-0.7366 5.5245,-1.4732 4.0513,-1.1049 8.4709,-1.1049 7.7343,0 11.4173,3.314699 4.0513,2.9464 4.0513,10.3124 v 81.762597 z"
         style="font-family:'Baloo Da 2';-inkscape-font-specification:'Baloo Da 2, Normal'"
         id="path917" />
      <path
         d="m 413.39738,35.864076 h -29.464 v -55.981599 q 0,-8.470899 2.9464,-13.258799 3.3147,-5.1562 10.6807,-9.9441 9.5758,-6.2611 26.1493,-10.680699 16.5735,-4.7879 36.82999,-4.7879 29.464,0 29.464,14.731999 0,3.683 -1.1049,6.9977 -1.1049,2.9464 -2.9464,5.1562 -3.683,-0.7366 -9.5758,-1.4732 -5.8928,-0.7366 -11.7856,-0.7366 -16.9418,0 -29.83229,3.683 -12.8905,3.3147 -21.3614,8.102599 z m 0,-12.5222 v 92.074994 q -1.8415,0.7366 -5.5245,1.4732 -3.683,1.1049 -8.1026,1.1049 -7.7343,0 -11.7856,-2.9464 -4.0513,-3.3147 -4.0513,-10.3124 V 18.922276 Z"
         style="font-family:'Baloo Da 2';-inkscape-font-specification:'Baloo Da 2, Normal'"
         id="path919" />
      <path
         d="m 536.50138,35.864076 h -29.464 v -55.981599 q 0,-8.470899 2.9464,-13.258799 3.3147,-5.1562 10.6807,-9.9441 9.5758,-6.2611 26.1493,-10.680699 16.5735,-4.7879 36.83,-4.7879 29.464,0 29.464,14.731999 0,3.683 -1.1049,6.9977 -1.1049,2.9464 -2.9464,5.1562 -3.683,-0.7366 -9.5758,-1.4732 -5.8928,-0.7366 -11.7856,-0.7366 -16.9418,0 -29.8323,3.683 -12.8905,3.3147 -21.3614,8.102599 z m 0,-12.5222 v 92.074994 q -1.8415,0.7366 -5.5245,1.4732 -3.683,1.1049 -8.1026,1.1049 -7.7343,0 -11.7856,-2.9464 -4.0513,-3.3147 -4.0513,-10.3124 V 18.922276 Z"
         style="font-family:'Baloo Da 2';-inkscape-font-specification:'Baloo Da 2, Normal'"
         id="path921" />
      <path
         d="m 637.50697,26.656576 111.22659,-15.1003 q -1.4732,-20.256499 -13.9954,-33.146999 -12.5222,-13.258799 -34.6202,-13.258799 -22.8346,0 -37.9349,16.573499 -14.73199,16.2051998 -14.73199,46.774099 v 8.1026 q 2.5781,29.463999 19.15159,44.932598 16.9418,15.1003 46.0375,15.1003 15.4686,0 27.9908,-5.1562 12.5222,-5.1562 19.8882,-11.049 4.0513,2.5781 6.2611,6.2611 2.5781,3.3147 2.5781,7.7343 0,6.997696 -8.1026,13.258796 -7.7343,5.8928 -20.9931,9.5758 -12.8905,3.683 -29.0957,3.683 -28.3591,0 -49.3522,-10.3124 -20.62479,-10.3124 -32.04209,-30.568896 -11.049,-20.624799 -11.049,-50.088798 0,-20.9930995 5.8928,-37.198299 6.2611,-16.573499 16.9418,-27.990799 11.04899,-11.4173 26.14929,-17.3101 15.1003,-6.261099 32.7787,-6.261099 22.4663,0 39.4081,9.575799 17.3101,9.5758 26.8859,26.885899 9.9441,16.9417999 9.9441,39.039799 0,8.1026 -3.683,11.7856 -3.683,3.3147 -10.3124,4.0513 L 638.98017,49.859475 Z"
         style="font-family:'Baloo Da 2';-inkscape-font-specification:'Baloo Da 2, Normal'"
         id="path923" />
      <path
         d="m 951.02144,41.388575 h -29.464 V 5.2951766 q 0,-20.6247996 -11.7856,-30.2005986 -11.4173,-9.5758 -30.9372,-9.5758 -14.732,0 -26.1493,3.683 -11.4173,3.683 -19.5199,8.470899 v 63.715898 h -29.464 v -62.242698 q 0,-7.734299 2.9464,-12.522199 3.3147,-5.1562 11.049,-9.9441 9.5758,-5.5245 25.4127,-10.312399 15.8369,-5.1562 35.7251,-5.1562 33.5153,0 52.6669,15.468599 19.5199,15.1003 19.5199,47.1423986 z m -117.856,-20.256499 v 94.284794 q -1.8415,0.7366 -5.5245,1.4732 -3.683,1.1049 -8.1026,1.1049 -7.7343,0 -11.7856,-2.9464 -4.0513,-3.3147 -4.0513,-10.3124 V 21.132076 Z m 117.856,0 v 94.284794 q -1.8415,0.7366 -5.8928,1.4732 -3.683,1.1049 -7.7343,1.1049 -8.1026,0 -12.1539,-2.9464 -3.683,-3.3147 -3.683,-10.3124 V 21.132076 Z"
         style="font-family:'Baloo Da 2';-inkscape-font-specification:'Baloo Da 2, Normal'"
         id="path925" />
      <path
         d="m 1069.337,-34.112922 q -25.0444,0 -41.6179,16.941799 -16.5735,16.94179976 -16.5735,48.615599 0,31.305499 15.8369,48.247298 16.2052,16.9418 42.3545,16.9418 15.4686,0 25.781,-4.0513 10.3124,-4.4196 18.415,-9.9441 4.0513,2.2098 6.6294,5.5245 2.5781,3.3147 2.5781,8.1026 0,10.312396 -15.4686,17.678396 -15.1003,6.9977 -37.9349,6.9977 -25.4127,0 -45.6692,-9.5758 -19.8882,-9.9441 -31.30552,-29.832296 -11.4173,-19.888199 -11.4173,-50.088798 0,-29.8322993 11.7856,-49.720499 11.78562,-20.256499 31.67382,-30.200599 20.2565,-10.312399 44.196,-10.312399 22.8346,0 37.5666,7.734299 15.1003,7.7343 15.1003,17.6784 0,4.4196 -2.5781,7.7343 -2.5781,3.314699 -6.6294,5.156199 -8.1026,-5.524499 -18.0467,-9.575799 -9.5758,-4.0513 -24.6761,-4.0513 z"
         style="font-family:'Baloo Da 2';-inkscape-font-specification:'Baloo Da 2, Normal'"
         id="path927" />
      <path
         d="m 1155.6113,26.656576 111.2266,-15.1003 q -1.4732,-20.256499 -13.9954,-33.146999 -12.5222,-13.258799 -34.6202,-13.258799 -22.8346,0 -37.9349,16.573499 -14.732,16.2051998 -14.732,46.774099 v 8.1026 q 2.5781,29.463999 19.1516,44.932598 16.9418,15.1003 46.0375,15.1003 15.4686,0 27.9908,-5.1562 12.5222,-5.1562 19.8882,-11.049 4.0513,2.5781 6.2611,6.2611 2.5781,3.3147 2.5781,7.7343 0,6.997696 -8.1026,13.258796 -7.7343,5.8928 -20.9931,9.5758 -12.8905,3.683 -29.0957,3.683 -28.3591,0 -49.3522,-10.3124 -20.6248,-10.3124 -32.0421,-30.568896 -11.049,-20.624799 -11.049,-50.088798 0,-20.9930995 5.8928,-37.198299 6.2611,-16.573499 16.9418,-27.990799 11.049,-11.4173 26.1493,-17.3101 15.1003,-6.261099 32.7787,-6.261099 22.4663,0 39.4081,9.575799 17.3101,9.5758 26.8859,26.885899 9.9441,16.9417999 9.9441,39.039799 0,8.1026 -3.683,11.7856 -3.683,3.3147 -10.3124,4.0513 l -123.7488,17.310099 z"
         style="font-family:'Baloo Da 2';-inkscape-font-specification:'Baloo Da 2, Normal'"
         id="path929" />
    </g>
  </g>
  <g
     transform="matrix(0.00458611,0,0,-0.00458611,-0.21432252,324.88003)"
     fill="#000000"
     stroke="none"
     id="g840">
    <circle
       style="fill:url(#radialGradient1305);fill-opacity:1;stroke-width:113.02"
       id="path1215"
       cx="-35461.734"
       cy="35378.465"
       transform="scale(-1,1)"
       r="18733.043"
       inkscape:label="light" />
    <path
       d="m 6840,44997 c 0,-3 -637,-2241 -1416,-4974 C -270,20041 50,21163 50,21146 c 0,-8 141,-92 312,-189 172,-96 792,-443 1378,-772 586,-329 1326,-744 1645,-923 542,-304 823,-461 1225,-687 91,-51 296,-166 455,-255 160,-90 380,-213 490,-275 110,-62 589,-331 1065,-598 873,-489 1826,-1023 3700,-2075 564,-316 1117,-626 1230,-689 113,-64 259,-146 325,-183 66,-37 620,-348 1230,-690 1905,-1069 2174,-1220 2380,-1335 110,-62 328,-184 485,-272 157,-88 492,-276 745,-418 253,-142 737,-413 1075,-603 338,-189 705,-395 815,-457 110,-62 571,-321 1025,-575 454,-254 916,-514 1028,-576 111,-63 293,-165 405,-228 111,-62 573,-322 1027,-576 872,-489 978,-548 1648,-925 233,-130 431,-239 441,-242 14,-4 431,917 2538,5599 1387,3082 3879,8620 5538,12307 684.063,11536.358 -25404,19482 -25415,19488 -7,5 26190,-11771 26190,-11771 v 0 c 0,0 -26178,11769 -26190,11771 -13,3 0,3 0,0 z"
       id="path838"
       style="fill:#0052ff;fill-opacity:1"
       sodipodi:nodetypes="scscscccscccsccsscsscccccccccccs"
       inkscape:label="left" />
    <path
       d="m 25862.72,6793.267 c 3,0 2241,-637 4974,-1416 19982,-5693.99996 18860,-5373.9999648 18877,-5373.9999648 8,0 92,141.0000048 189,312.0000048 96,172 443,791.99996 772,1377.99996 329,586 744,1326 923,1645 304,542 461,823 687,1225 51,91 166,296 255,455 90,160 213,380 275,490 62,110 331,589 598,1065 489,873 1023,1826 2075,3700 316,564 626,1117 689,1230 64,113 146,259 183,325 37,66 348,620 690,1230 1069,1905 1220,2174 1335,2380 62,110 184,328 272,485 88,157 276,492 418,745 142,253 413,737 603,1075 189,338 395,705 457,815 62,110 321,571 575,1025 254,454 514,916 576,1028 63,111 165,293 228,405 62,111 322,573 576,1027 489,872 548,978 925,1648 130,233 239,431 242,441 4,14 -917,431 -5599,2538 -3082,1387 -8620,3879 -12307,5538 -11536.358,684.063 -19482,-25404 -19488,-25415 -5,-7 11771,26190 11771,26190 v 0 c 0,0 -11769,-26178 -11771,-26190 -3,-13 -3,0 0,0 z"
       id="path2198"
       style="fill:#00a0ff;fill-opacity:1"
       sodipodi:nodetypes="scscscccscccsccsscsscccccccccccs"
       inkscape:label="bottom" />
    <path
       d="m 44958.383,64046.733 c -3,0 -2241,637 -4974,1416 -19982,5694 -18860,5374 -18877,5374 -8,0 -92,-141 -189,-312 -96,-172 -443,-792 -772,-1378 -329,-586 -744,-1326 -923,-1645 -304,-542 -461,-823 -687,-1225 -51,-91 -166,-296 -255,-455 -90,-160 -213,-380 -275,-490 -62,-110 -331,-589 -598,-1065 -489,-873 -1023,-1826 -2075,-3700 -316,-564 -626,-1117 -689,-1230 -64,-113 -146,-259 -183,-325 -37,-66 -348,-620 -690,-1230 -1069,-1905 -1220,-2174 -1335,-2380 -62,-110 -184,-328 -272,-485 -88,-157 -276,-492 -418,-745 -142,-253 -413,-737 -603,-1075 -189,-338 -395,-705 -457,-815 -62,-110 -321,-571 -575,-1025 -254.0001,-454 -514.0001,-916 -576.0001,-1028 -63,-111 -165,-293 -228,-405 -62,-111 -322,-573 -576,-1027 -489,-872 -548,-978 -925,-1648 -130,-233 -239,-431 -242,-441 -4,-14 917,-431 5599.0001,-2538 3082,-1387 8620,-3879 12307,-5538 11536.358,-684.063 19482,25404 19488,25415 5,7 -11771,-26190 -11771,-26190 v 0 c 0,0 11769,26178 11771,26190 3,13 3,0 0,0 z"
       id="path2298"
       style="fill:#000080;fill-opacity:1"
       sodipodi:nodetypes="scscscccscccsccsscsscccccccccccs"
       inkscape:label="top" />
    <path
       d="m 64036.733,25801.467 c 0,3 637,2241 1416,4974 5694,19982 5374,18860 5374,18877 0,8 -141,92 -312,189 -172,96 -792,443 -1378,772 -586,329 -1326,744 -1645,923 -542,304 -823,461 -1225,687 -91,51 -296,166 -455,255 -160,90 -380,213 -490,275 -110,62 -589,331 -1065,598 -873,489 -1826,1023 -3700,2075 -564,316 -1117,626 -1230,689 -113,64 -259,146 -325,183 -66,37 -620,348 -1230,690 -1905,1069 -2174,1220 -2380,1335 -110,62 -328,184 -485,272 -157,88 -492,276 -745,418 -253,142 -737,413 -1075,603 -338,189 -705,395 -815,457 -110,62 -571,321 -1025,575 -454,254 -916,514 -1028,576 -111,63 -293,165 -405,228 -111,62 -573,322 -1027,576 -872,489 -978,548 -1648,925 -233,130 -431,239 -441,242 -14,4 -431,-917 -2538,-5599 -1387,-3082 -3879,-8620 -5538,-12307 -684.063,-11536.358 25404,-19482 25415,-19488 7,-5 -26190,11771 -26190,11771 v 0 c 0,0 26178,-11769 26190,-11771 13,-3 0,-3 0,0 z"
       id="path2489"
       style="fill:#88e9ff;fill-opacity:1"
       sodipodi:nodetypes="scscscccscccsccsscsscccccccccccs"
       inkscape:label="right" />
  </g>
</svg>
