<?xml version="1.0" encoding="UTF-8"?>
<svg width="1267.6mm" height="179.73mm" version="1.1" viewBox="0 0 1267.6 179.73" xmlns="http://www.w3.org/2000/svg">
<g transform="translate(-27.236 58.789)">
<g stroke-width=".26458" aria-label="currence">
<path d="m115.63-34.113q-25.044 0-41.618 16.942-16.574 16.942-16.574 48.616 0 31.305 15.837 48.247 16.205 16.942 42.354 16.942 15.469 0 25.781-4.0513 10.312-4.4196 18.415-9.9441 4.0513 2.2098 6.6294 5.5245t2.5781 8.1026q0 10.312-15.469 17.678-15.1 6.9977-37.935 6.9977-25.413 0-45.669-9.5758-19.888-9.9441-31.305-29.832-11.417-19.888-11.417-50.089 0-29.832 11.786-49.72 11.786-20.256 31.674-30.201 20.256-10.312 44.196-10.312 22.835 0 37.567 7.7343 15.1 7.7343 15.1 17.678 0 4.4196-2.5781 7.7343-2.5781 3.3147-6.6294 5.1562-8.1026-5.5245-18.047-9.5758-9.5758-4.0513-24.676-4.0513z"/>
<path d="m197.11 20.395h29.464v32.042q0 23.571 12.522 33.884t34.62 10.312q14.732 0 25.044-2.9464 10.312-3.3147 16.205-6.6294v-66.662h29.464v65.557q0 7.7343-2.2098 12.522-1.8415 4.4196-9.5758 8.8392-8.1026 4.7879-23.203 9.2075t-36.093 4.4196q-24.308 0-41.618-6.9977-16.942-7.366-25.781-22.098-8.8392-15.1-8.8392-37.935zm117.86 19.152v-92.812q1.8415-0.7366 5.5245-1.4732 4.0513-1.1049 8.1026-1.1049 8.1026 0 11.786 3.3147 4.0513 2.9464 4.0513 10.312v81.763zm-117.86 0v-92.812q1.8415-0.7366 5.5245-1.4732 4.0513-1.1049 8.4709-1.1049 7.7343 0 11.417 3.3147 4.0513 2.9464 4.0513 10.312v81.763z"/>
<path d="m413.4 35.864h-29.464v-55.982q0-8.4709 2.9464-13.259 3.3147-5.1562 10.681-9.9441 9.5758-6.2611 26.149-10.681 16.574-4.7879 36.83-4.7879 29.464 0 29.464 14.732 0 3.683-1.1049 6.9977-1.1049 2.9464-2.9464 5.1562-3.683-0.7366-9.5758-1.4732t-11.786-0.7366q-16.942 0-29.832 3.683-12.89 3.3147-21.361 8.1026zm0-12.522v92.075q-1.8415 0.7366-5.5245 1.4732-3.683 1.1049-8.1026 1.1049-7.7343 0-11.786-2.9464-4.0513-3.3147-4.0513-10.312v-85.814z"/>
<path d="m536.5 35.864h-29.464v-55.982q0-8.4709 2.9464-13.259 3.3147-5.1562 10.681-9.9441 9.5758-6.2611 26.149-10.681 16.574-4.7879 36.83-4.7879 29.464 0 29.464 14.732 0 3.683-1.1049 6.9977-1.1049 2.9464-2.9464 5.1562-3.683-0.7366-9.5758-1.4732t-11.786-0.7366q-16.942 0-29.832 3.683-12.89 3.3147-21.361 8.1026zm0-12.522v92.075q-1.8415 0.7366-5.5245 1.4732-3.683 1.1049-8.1026 1.1049-7.7343 0-11.786-2.9464-4.0513-3.3147-4.0513-10.312v-85.814z"/>
<path d="m637.51 26.657 111.23-15.1q-1.4732-20.256-13.995-33.147-12.522-13.259-34.62-13.259-22.835 0-37.935 16.573-14.732 16.205-14.732 46.774v8.1026q2.5781 29.464 19.152 44.933 16.942 15.1 46.038 15.1 15.469 0 27.991-5.1562t19.888-11.049q4.0513 2.5781 6.2611 6.2611 2.5781 3.3147 2.5781 7.7343 0 6.9977-8.1026 13.259-7.7343 5.8928-20.993 9.5758-12.89 3.683-29.096 3.683-28.359 0-49.352-10.312-20.625-10.312-32.042-30.569-11.049-20.625-11.049-50.089 0-20.993 5.8928-37.198 6.2611-16.573 16.942-27.991 11.049-11.417 26.149-17.31 15.1-6.2611 32.779-6.2611 22.466 0 39.408 9.5758 17.31 9.5758 26.886 26.886 9.9441 16.942 9.9441 39.04 0 8.1026-3.683 11.786-3.683 3.3147-10.312 4.0513l-123.75 17.31z"/>
<path d="m951.02 41.389h-29.464v-36.093q0-20.625-11.786-30.201-11.417-9.5758-30.937-9.5758-14.732 0-26.149 3.683t-19.52 8.4709v63.716h-29.464v-62.243q0-7.7343 2.9464-12.522 3.3147-5.1562 11.049-9.9441 9.5758-5.5245 25.413-10.312 15.837-5.1562 35.725-5.1562 33.515 0 52.667 15.469 19.52 15.1 19.52 47.142zm-117.86-20.256v94.285q-1.8415 0.7366-5.5245 1.4732-3.683 1.1049-8.1026 1.1049-7.7343 0-11.786-2.9464-4.0513-3.3147-4.0513-10.312v-83.604zm117.86 0v94.285q-1.8415 0.7366-5.8928 1.4732-3.683 1.1049-7.7343 1.1049-8.1026 0-12.154-2.9464-3.683-3.3147-3.683-10.312v-83.604z"/>
<path d="m1069.3-34.113q-25.044 0-41.618 16.942-16.574 16.942-16.574 48.616 0 31.305 15.837 48.247 16.205 16.942 42.354 16.942 15.469 0 25.781-4.0513 10.312-4.4196 18.415-9.9441 4.0513 2.2098 6.6294 5.5245t2.5781 8.1026q0 10.312-15.469 17.678-15.1 6.9977-37.935 6.9977-25.413 0-45.669-9.5758-19.888-9.9441-31.306-29.832-11.417-19.888-11.417-50.089 0-29.832 11.786-49.72 11.786-20.256 31.674-30.201 20.256-10.312 44.196-10.312 22.835 0 37.567 7.7343 15.1 7.7343 15.1 17.678 0 4.4196-2.5781 7.7343-2.5781 3.3147-6.6294 5.1562-8.1026-5.5245-18.047-9.5758-9.5758-4.0513-24.676-4.0513z"/>
<path d="m1155.6 26.657 111.23-15.1q-1.4732-20.256-13.995-33.147-12.522-13.259-34.62-13.259-22.835 0-37.935 16.573-14.732 16.205-14.732 46.774v8.1026q2.5781 29.464 19.152 44.933 16.942 15.1 46.038 15.1 15.469 0 27.991-5.1562t19.888-11.049q4.0513 2.5781 6.2611 6.2611 2.5781 3.3147 2.5781 7.7343 0 6.9977-8.1026 13.259-7.7343 5.8928-20.993 9.5758-12.89 3.683-29.096 3.683-28.359 0-49.352-10.312-20.625-10.312-32.042-30.569-11.049-20.625-11.049-50.089 0-20.993 5.8928-37.198 6.2611-16.573 16.942-27.991 11.049-11.417 26.149-17.31 15.1-6.2611 32.779-6.2611 22.466 0 39.408 9.5758 17.31 9.5758 26.886 26.886 9.9441 16.942 9.9441 39.04 0 8.1026-3.683 11.786-3.683 3.3147-10.312 4.0513l-123.75 17.31z"/>
</g>
</g>
</svg>
